<?xml version="1.0" standalone="no"?><!DOCTYPE svg PUBLIC "-//W3C//DTD SVG 1.1//EN" "http://www.w3.org/Graphics/SVG/1.1/DTD/svg11.dtd"><svg t="1551162347994" class="icon" style="" viewBox="0 0 1024 1024" version="1.1" xmlns="http://www.w3.org/2000/svg" p-id="1981" data-spm-anchor-id="a313x.7781069.0.i17" xmlns:xlink="http://www.w3.org/1999/xlink" width="200" height="200"><defs><style type="text/css"></style></defs><path d="M512 512m-512 0a512 512 0 1 0 1024 0 512 512 0 1 0-1024 0Z" fill="#6D819C" p-id="1982"></path><path d="M1013.76 408.576C965.632 175.104 759.808 0 512 0 229.376 0 0 229.376 0 512c0 123.904 44.032 236.544 116.736 324.608C203.776 884.736 303.104 911.36 409.6 911.36c301.056 0 550.912-217.088 604.16-502.784z" fill="#6D819C" p-id="1983" data-spm-anchor-id="a313x.7781069.0.i14" class=""></path><path d="M583.68 686.08H440.32c-17.408 0-30.72-13.312-30.72-30.72s13.312-30.72 30.72-30.72h143.36c17.408 0 30.72 13.312 30.72 30.72s-13.312 30.72-30.72 30.72z" fill="#ffffff" p-id="1984" data-spm-anchor-id="a313x.7781069.0.i16" class="selected"></path><path d="M362.496 413.696c-8.192-8.192-20.48-8.192-28.672 0l-43.008 43.008-43.008-43.008c-8.192-8.192-20.48-8.192-28.672 0-8.192 8.192-8.192 20.48 0 28.672l43.008 43.008-43.008 43.008c-8.192 8.192-8.192 20.48 0 28.672 8.192 8.192 20.48 8.192 28.672 0l43.008-43.008 43.008 43.008c8.192 8.192 20.48 8.192 28.672 0 8.192-8.192 8.192-20.48 0-28.672l-43.008-43.008 43.008-43.008c8.192-7.168 8.192-20.48 0-28.672zM804.864 413.696c-8.192-8.192-20.48-8.192-28.672 0l-43.008 43.008-43.008-43.008c-8.192-8.192-20.48-8.192-28.672 0-8.192 8.192-8.192 20.48 0 28.672l43.008 43.008-43.008 43.008c-8.192 8.192-8.192 20.48 0 28.672 8.192 8.192 20.48 8.192 28.672 0l43.008-43.008 43.008 43.008c8.192 8.192 20.48 8.192 28.672 0 8.192-8.192 8.192-20.48 0-28.672l-43.008-43.008 43.008-43.008c8.192-7.168 8.192-20.48 0-28.672z" fill="#ffffff" p-id="1985" data-spm-anchor-id="a313x.7781069.0.i12" class="selected"></path></svg>