<?xml version="1.0" standalone="no"?><!DOCTYPE svg PUBLIC "-//W3C//DTD SVG 1.1//EN" "http://www.w3.org/Graphics/SVG/1.1/DTD/svg11.dtd"><svg class="icon" width="200px" height="200.00px" viewBox="0 0 1024 1024" version="1.1" xmlns="http://www.w3.org/2000/svg"><path fill="#6D819C" d="M899.3 178.7l12.8 46.2-37.7 10.4c3.7 22.4 5.2 44 11.1 64.3 5.7 19.6-0.4 27-19 31.8-50.4 13-100.5 27.4-150.7 41.6-29.9 8.4-33.9 13.4-34.7 44.5-0.6 24.6-0.1 49.3 0.6 73.9 0.4 14-4.1 23.3-18.1 28.3-56.3 20.2-113 37.9-173.5 40-25.7 0.9-41.1 14.8-42.5 39.9-3.3 62-12.6 124.2 5 185.8 10 34.7 9.7 35.6-27.7 46.7-47.3 14-94.9 27.2-142.7 39.8-32.7 8.6-41.4 5.3-43.7-28.5-3.6-53.7-2.2-107.8-1-161.7 0.5-24.5 5.6-48.9 8.5-73.4 4.3-36.8-9.3-55.5-45.7-62.2-6.7-1.3-13.6-2-20.4-2.4-30.6-1.8-30.7-1.9-30.6-31.8 0.1-19.1 0.4-38.3-0.9-57.4-0.4-5.2-5-11.3-9.5-14.8-5.8-4.5-14.2-5.8-19.8-10.5-3.9-3.2-8-11.9-6.4-14.6 2.9-4.7 11.3-10.5 15.5-9.3 20 5.8 19.4-4.9 22.6-19.9 4.3-19.7-6-36.1-7-49.3 34-6.3 65.7-12.5 97.4-17.8 6.3-1.1 15.9-1.2 19.2 2.5 13.1 14.8 26.7 6.8 40.3 3.1 153.5-41.9 306.8-84.2 460.4-125.5 18.3-4.9 28.8-11.6 28.5-32.1-0.1-5.2 8-13.6 13.7-15.1 9.3-2.4 20.7-9.3 29 4.8 15.6 26.4 26 30.2 56.2 23.5 3.2-0.5 5.9-0.4 10.8-0.8zM462.5 330.9l8.5-16.6-180.6 46.4-9.7 20.5 181.8-50.3z m167.6 77.5c-7.7 1.7-15.3 4.2-22.8 7-22.6 8.2-44.8 18.2-70.2 12.4-3.2 26.4-3.9 44.1-0.3 56.4 3.1 10.4 9.4 16.9 20.1 21.5 3.9 1.7 8.4 3.1 13.5 4.3l8.1 1.8c2.9 0.6 5.9 1.1 9.1 1.6-49.7 19.1-77.8 0.4-79.2-49.2-0.2-5.5 0.5-11.7-1.9-16.1-2.2-4.1-11-9.4-11.8-8.6-13 11.6-33 22.4-35.9 36.6-7 34.5 9.5 78.1 63.9 66.9 40-8.2 79.4-19.6 119-29.9 13.6-3.5 20.3-12.7 20.4-27.1 0.2-17.8 1.6-35.6 1.7-53.3 0-24.9-9.5-29.6-33.7-24.3z m0 0" /></svg>