<?xml version="1.0" standalone="no"?><!DOCTYPE svg PUBLIC "-//W3C//DTD SVG 1.1//EN" "http://www.w3.org/Graphics/SVG/1.1/DTD/svg11.dtd"><svg class="icon" width="200px" height="200.00px" viewBox="0 0 1024 1024" version="1.1" xmlns="http://www.w3.org/2000/svg"><path fill="#6D819C" d="M512 1024C229.248 1024 0 794.752 0 512S229.248 0 512 0s512 229.248 512 512-229.248 512-512 512zM277.333 469.333a64 64 0 1 0 0-128 64 64 0 0 0 0 128z m469.334 0a64 64 0 1 0 0-128 64 64 0 0 0 0 128zM384 682.667A42.667 42.667 0 0 0 384 768h256a42.667 42.667 0 0 0 0-85.333H384z" /></svg>