<?xml version="1.0" encoding="utf-8"?>
<svg xmlns="http://www.w3.org/2000/svg" viewBox="0 0 24 24" fill="#5a6d8a"><path style="line-height:normal;text-indent:0;text-align:start;text-decoration-line:none;text-decoration-style:solid;text-decoration-color:#000;text-transform:none;block-progression:tb;isolation:auto;mix-blend-mode:normal" d="M 12 5 C 10.35499 5 9 6.3549904 9 8 C 9 9.6450096 10.35499 11 12 11 C 13.64501 11 15 9.6450096 15 8 C 15 6.3549904 13.64501 5 12 5 z M 5 7 A 2 2 0 0 0 3 9 A 2 2 0 0 0 5 11 A 2 2 0 0 0 7 9 A 2 2 0 0 0 5 7 z M 19 7 A 2 2 0 0 0 17 9 A 2 2 0 0 0 19 11 A 2 2 0 0 0 21 9 A 2 2 0 0 0 19 7 z M 5 13 C 2.815 13 1 13.908797 1 15.216797 L 1 17 L 4 17 L 4 16.216797 C 4 14.961797 4.5269844 13.877438 5.4589844 13.023438 C 5.3069844 13.014438 5.157 13 5 13 z M 12 13 C 8.468 13 6 14.322797 6 16.216797 L 6 19 L 18 19 L 18 16.216797 C 18 14.322797 15.532 13 12 13 z M 19 13 C 18.843 13 18.693016 13.014437 18.541016 13.023438 C 19.473016 13.877438 20 14.962797 20 16.216797 L 20 17 L 23 17 L 23 15.216797 C 23 13.908797 21.185 13 19 13 z" font-weight="400" font-family="sans-serif" white-space="normal" overflow="visible" fill="#5a6d8a"/></svg>
