<?xml version="1.0" standalone="no"?><!DOCTYPE svg PUBLIC "-//W3C//DTD SVG 1.1//EN" "http://www.w3.org/Graphics/SVG/1.1/DTD/svg11.dtd"><svg class="icon" width="200px" height="199.80px" viewBox="0 0 1025 1024" version="1.1" xmlns="http://www.w3.org/2000/svg"><path fill="#6D819C" d="M1019.848704 497.84832a32.13312 32.13312 0 0 0 0-35.69664c-4.192256-6.26688-52.52096-77.43488-130.420736-152.4736L984.064 214.6304a32.096256 32.096256 0 0 0 0-45.2608 31.760384 31.760384 0 0 0-45.056 0l-95.578112 96.01024c-0.54272 0.55296-0.724992 1.26976-1.2288 1.8432a740.7616 740.7616 0 0 0-99.9424-71.20896l54.605824-82.26816a32.045056 32.045056 0 0 0-8.835072-44.35968 31.705088 31.705088 0 0 0-44.179456 8.86784l-58.5728 88.22784c-43.450368-19.3536-89.81504-32.78848-138.24-36.9664 0.026624-0.53248 0.3072-0.98304 0.3072-1.51552V31.98976a31.860736 31.860736 0 1 0-63.719424 0V128c0 0.53248 0.280576 0.98304 0.305152 1.51552-48.429056 4.17792-94.795776 17.6128-138.24 36.9664l-58.5728-88.22784a31.715328 31.715328 0 0 0-44.179456-8.86784 32.043008 32.043008 0 0 0-8.835072 44.35968l54.603776 82.26816a740.7616 740.7616 0 0 0-99.9424 71.20896c-0.493568-0.57344-0.67584-1.29024-1.216512-1.8432L92.000256 169.3696a31.760384 31.760384 0 0 0-45.056 0 32.096256 32.096256 0 0 0 0 45.2608l94.63808 95.04768C63.6928 384.7168 15.36 455.8848 11.167744 462.15168a32.137216 32.137216 0 0 0 0 35.69664c4.192256 6.26688 52.52096 77.43488 130.420736 152.4736l-62.779392 63.05792a32.07168 32.07168 0 0 0 0 45.24032 31.744 31.744 0 0 0 45.056 0l63.719424-64c0.540672-0.55296 0.722944-1.26976 1.216512-1.8432a738.553856 738.553856 0 0 0 101.4784 72.11008L263.9872 817.68448a31.891456 31.891456 0 1 0 56.99584 28.63104l26.0096-52.24448c42.98752 18.98496 88.80128 32.19456 136.64256 36.39296v33.54624a31.860736 31.860736 0 1 0 63.719424 0V830.464c47.839232-4.1984 93.652992-17.408 136.64256-36.39296l26.0096 52.24448a31.891456 31.891456 0 1 0 56.99584-28.63104l-26.279936-52.79744a738.304 738.304 0 0 0 101.4784-72.11008c0.493568 0.57344 0.67584 1.29024 1.2288 1.8432l63.717376 64a31.744 31.744 0 0 0 45.056 0 32.07168 32.07168 0 0 0 0-45.24032l-62.779392-63.05792c77.903872-75.03872 126.232576-146.20672 130.424832-152.4736z m-942.97088-17.87904c48.59904-65.41312 229.33504-287.96928 438.6304-287.96928 208.896 0 389.967872 222.6176 438.6304 288.03072C905.539584 545.44384 724.803584 768 515.508224 768 306.618368 768 125.5424 545.3824 76.877824 479.96928z m586.32192 450.21184c-100.524032 39.50592-194.639872 39.6288-295.41376 0.06144a31.987712 31.987712 0 0 0-23.1424 59.63776c57.7536 22.65088 115.212288 34.11968 170.8032 34.11968 55.72608 0 113.2544-11.50976 170.969088-34.18112a31.997952 31.997952 0 0 0-23.216128-59.63776z m-147.69152-226.18112c122.959872 0 223.0272-100.49536 223.0272-223.98976S638.468096 256 515.508224 256s-223.01696 100.49536-223.01696 224.01024 100.059136 223.98976 223.01696 223.98976z m0-384c87.830528 0 159.297536 71.7824 159.297536 160.01024s-71.4752 159.98976-159.297536 159.98976-159.297536-71.7824-159.297536-159.98976 71.467008-160.01024 159.297536-160.01024z m0 223.98976a64 64 0 1 0-63.719424-63.97952 63.854592 63.854592 0 0 0 63.72352 63.97952z" /></svg>