<?xml version="1.0" standalone="no"?><!DOCTYPE svg PUBLIC "-//W3C//DTD SVG 1.1//EN" "http://www.w3.org/Graphics/SVG/1.1/DTD/svg11.dtd"><svg t="1551432463810" class="icon" style="" viewBox="0 0 1024 1024" version="1.1" xmlns="http://www.w3.org/2000/svg" p-id="2851" xmlns:xlink="http://www.w3.org/1999/xlink" width="200" height="200"><defs><style type="text/css"></style></defs><path d="M350.72 481.6l26.88 0 0 80.64-26.88 0 0-80.64Z" fill="#6D819C" p-id="2852"></path><path d="M619.52 481.6l26.88 0 0 80.64-26.88 0 0-80.64Z" fill="#6D819C" p-id="2853"></path><path d="M982.4 454.72h-94.08V176.64a26.88 26.88 0 0 0-16.32-24.64L522.56 2.24a26.88 26.88 0 0 0-21.12 0L152 152a26.88 26.88 0 0 0-16.32 24.64v278.08H41.6a13.44 13.44 0 0 0-13.44 13.44v134.4a13.44 13.44 0 0 0 7.36 12.16l100.16 49.92v121.92a26.88 26.88 0 0 0 16.32 24.64l119.36 51.2-24 88a26.88 26.88 0 0 0 7.04 25.92l39.68 39.68a26.88 26.88 0 0 0 44.16-9.92l36.16-99.84 128 54.4a26.88 26.88 0 0 0 21.12 0l128-54.4 36.16 99.84a26.88 26.88 0 0 0 44.16 9.92l39.68-39.68a26.88 26.88 0 0 0 7.04-25.92l-24-88 119.36-51.2a26.88 26.88 0 0 0 16.32-24.64v-121.92l100.16-49.92a13.44 13.44 0 0 0 7.36-12.16v-134.4a13.44 13.44 0 0 0-15.36-13.44z m-846.72 64v115.84l-80.64-40.32V480h80.64z m26.88-171.52h53.76v144.64l-53.76 26.88z m150.4 649.92l-39.68-39.68 23.04-84.48 53.44 23.04z m260.8-273.6h-123.52a53.76 53.76 0 0 0-50.56 35.52l-40.64 111.36-55.68-23.68 42.24-155.52 166.4-47.36 166.08 47.36 42.24 155.52-55.68 23.68-40.64-111.68a53.76 53.76 0 0 0-50.24-35.2z m32 61.76l-54.08 42.88A13.76 13.76 0 0 1 544 832h-64a14.08 14.08 0 0 1-8.32-2.88l-54.08-42.88 6.08-17.28a26.88 26.88 0 0 1 25.28-17.6h123.52a26.88 26.88 0 0 1 25.28 17.6zM512 936l-128-55.04 25.28-69.44 47.04 37.44a40.96 40.96 0 0 0 24.96 8.64H544a40.64 40.64 0 0 0 24.96-8.64l47.04-37.44 24 69.76z m238.72 21.12l-39.68 39.68L674.24 896l53.44-23.04z m110.72-170.88l-115.84 49.6-41.6-151.68a26.88 26.88 0 0 0-18.56-18.88l-166.08-47.36a26.88 26.88 0 0 0-14.72 0l-166.08 47.68a26.88 26.88 0 0 0-18.56 18.88l-41.6 151.36-115.84-49.6V544a26.88 26.88 0 0 0 12.16 0l53.76-26.88a26.88 26.88 0 0 0 14.72-24v-145.92h80.64v64a26.88 26.88 0 0 0 16.96 24.96l80.64 32a26.88 26.88 0 0 0 36.8-24.96v-96h107.52v96a26.88 26.88 0 0 0 36.8 24.96l80.64-32a26.88 26.88 0 0 0 16.96-24.96v-64h80.64v144.64a26.88 26.88 0 0 0 14.72 24l53.76 26.88a26.88 26.88 0 0 0 12.16 2.88zM352 409.6v-64h80.64v96z m241.92 32v-96H672v64z m268.8 76.8l-53.76-26.88v-144.32h53.76z m0-198.4H162.56V239.68h149.44a11.84 11.84 0 0 0 11.84-11.84V224a11.84 11.84 0 0 0-11.84-11.84H162.56V176.64L512 26.88l349.44 149.76z m107.52 273.92l-80.64 40.32V480h80.64z" fill="#6D819C" p-id="2854"></path></svg>